<?xml version="1.0" encoding="UTF-8" standalone="no"?>
<svg
   xmlns:dc="http://purl.org/dc/elements/1.1/"
   xmlns:cc="http://creativecommons.org/ns#"
   xmlns:rdf="http://www.w3.org/1999/02/22-rdf-syntax-ns#"
   xmlns:svg="http://www.w3.org/2000/svg"
   xmlns="http://www.w3.org/2000/svg"
   xmlns:sodipodi="http://sodipodi.sourceforge.net/DTD/sodipodi-0.dtd"
   xmlns:inkscape="http://www.inkscape.org/namespaces/inkscape"
   viewBox="-405.5 -328.5 811 657"
   width="811"
   height="657"
   style="background-color: rgb(255, 255, 255);"
   version="1.1"
   id="svg1867"
   sodipodi:docname="anotherWorld-projection-view.svg"
   inkscape:version="1.0.2-2 (e86c870879, 2021-01-15)">
  <metadata
     id="metadata1873">
    <rdf:RDF>
      <cc:Work
         rdf:about="">
        <dc:format>image/svg+xml</dc:format>
        <dc:type
           rdf:resource="http://purl.org/dc/dcmitype/StillImage" />
        <dc:title />
      </cc:Work>
    </rdf:RDF>
  </metadata>
  <defs
     id="defs1871" />
  <sodipodi:namedview
     pagecolor="#000000"
     bordercolor="#666666"
     borderopacity="1"
     objecttolerance="10"
     gridtolerance="10"
     guidetolerance="10"
     inkscape:pageopacity="1"
     inkscape:pageshadow="2"
     inkscape:window-width="1366"
     inkscape:window-height="705"
     id="namedview1869"
     showgrid="false"
     inkscape:zoom="0.75494673"
     inkscape:cx="244.56149"
     inkscape:cy="328.5"
     inkscape:window-x="-8"
     inkscape:window-y="-8"
     inkscape:window-maximized="1"
     inkscape:current-layer="layer1"
     inkscape:document-rotation="0" />
  <path
     d="M235.30277497362576,25.312069199756525L-514.312446546498,193.6018474884681M235.70765188098625,17.92847497972664L-606.0893008720166,-542.1016777903692M234.51921514151005,22.48152670748156L-1487.6444601210817,-142.60886316402033M233.32060024498637,27.07357224449135L-8873.488485267866,3204.4211973378005"
     style="fill:none;stroke:rgb(255,255,255);stroke-opacity:1;stroke-width:1;stroke-linecap:round"
     id="path1741" />
  <path
     d="M-771.4042937871327,-119.45136775570079L-1224.7464008337804,-109.4376913591908L-34.65272437310981,36.44691227705427z"
     style="fill:rgb(255,165,0);fill-opacity:1"
     id="path1743" />
  <path
     d="M-119.36617650963963,-50.50045977271023L374.1508639425328,-135.93280045967836L460.15901371329267,-1164.239954799855z"
     style="fill:rgb(139,0,139);fill-opacity:1"
     id="path1745" />
  <path
     d="M-1811.0484644351718,100.39870203762933L-141.19051648967888,-83.16847617893058M-141.19051648967888,-83.16847617893058L761.5716471629236,-42.219082694544795M-1835.6175886098931,121.17564622817376L-113.36176290002119,-81.9061607798091M-163.2303706626758,-80.74563904849128L783.5268207128456,-35.41238132445917M-1864.7175101268863,145.78407105472343L-84.38653939079379,-80.59184137592904M-1899.7288138947201,175.3914717601553L-54.192508688159016,-79.22223674039668M-187.04661075780444,-78.12752413915436L808.5732715336956,-27.647299862888726M-1942.656403457629,211.69330027632276L-22.701117220638135,-77.7937836743568M-1996.5273900194154,257.2494411189581L10.173087287813637,-76.30260605293758M-212.86301685404283,-75.28953134784541L837.4133180667661,-18.706100477531038M-2066.1377322854296,316.1156093250575L44.5232301378801,-74.74447970200477M-2159.565265156449,395.12284712959564L80.45099066281362,-73.11479243554284M-240.94260414817097,-72.20274746217986L870.9794603661422,-8.299682771101024M-2291.556298705385,506.7414102577071L118.06760747698736,-71.4084984574672M-2492.1963657923056,676.4132083489518L157.49502889768715,-69.62006617836224M-271.5966159509831,-68.83295756203741L910.537097589464,3.9642614365406144M-2833.8647724640878,965.3459910810182L198.8672336028198,-67.74341831029878M-3545.8278636173213,1567.4194433304053L242.33175165718544,-65.77186287291079M-305.1961090393273,-65.13937144393515L957.8476403243891,18.63181736913557M-5942.140273242975,3593.8673070734435L288.05142229368147,-63.6980134602422M-15414.948168193547,14425.51099541675L336.20643258854216,-61.51369676620789M-342.18704719366264,-61.07296439121006L1015.4379473945053,36.48638003731372M-6437.445366770351,14425.510995416813L386.9966908316425,-59.20984492824957M-383.1102081701328,-56.5742888042266L1087.0668010917686,58.693274257038745M-428.62779551522203,-51.570548768468456L1178.5798637478413,87.06481445668504M-479.55954653752286,-45.97163071181868L1299.5913986590754,124.5816839363792M-536.9325398002351,-39.66462807603666L1467.1047244080605,176.51537424816746M-602.0511753988336,-32.50614839765786L1714.2990923123023,253.15235636381232M-676.5975500307604,-24.311279094976292L2115.768326349715,377.6187459897501"
     style="fill:none;stroke:rgb(255,255,255);stroke-opacity:1;stroke-width:1;stroke-linecap:round"
     id="path1747" />
  <path
     d="M-36.82855138618573,-16.784333643137415L-2.617628196762451,-26.104148117997696L-2.8809713227087466,-71.97077439946223zM-36.980824566093915,-65.68272401892283L-36.34022111332985,-16.416319905479902L-2.38452549853307,-71.55588679705295z"
     style="fill:rgb(170,0,170);fill-opacity:1"
     id="path1749" />
  <path
     d="M-33.69630315815537,32.27625388496371L-29.23575419086459,30.569580778913046L-30.357022607022603,-65.93447634610408zM-39.75665059456258,31.319314751825058L-32.709703067153754,32.15620610674946L-33.9323514871843,-65.30122232596952zM-40.60829207847896,-65.16624575330755L-39.25300143295301,31.878651281301238L-33.42922627756694,-64.7741455116061zM-34.452337589550865,-64.71579107556725L-33.22340087272951,32.596810608932074L-29.860969205852168,-65.52095003968277zM-33.98770843969332,-64.0209758014592L-29.376024226392417,-65.00311237763793L-37.44404459081424,-65.47930715947689zM-41.093297607704116,-64.56483676229185L-32.9815716580405,-64.11916494676949L-36.46928172345317,-65.52359213166194z"
     style="fill:rgb(0,128,0);fill-opacity:1"
     id="path1751" />
  <path
     d="M-762.7788305069915,-14.837386724924185L2881.448595925524,615.0004696239816"
     style="fill:none;stroke:rgb(255,255,255);stroke-opacity:1;stroke-width:1;stroke-linecap:round"
     id="path1753" />
  <path
     d="M-34.17550926682592,31.718074895182983L99.30699722024112,47.40751022063325L-29.73760306142715,30.002959804537223zM-33.71279067539843,31.036099263215142L-33.65492820939679,38.88111703844086L99.31013963960844,47.37510718773944z"
     style="fill:rgb(255,0,0);fill-opacity:1"
     id="path1755" />
  <path
     d="M-34.58753409634767,-19.223714284568565L100.58366812348777,-7.898148495725638L-30.074320301661505,-20.466192844864622zM-34.10919224730404,-19.858154957616435L-34.0490891618699,-11.849864826041305L100.58554096569165,-7.9291611100271675zM-109.91390021254803,61.12037593915141L-28.74334369677266,30.110337483045413L-35.73312330992673,29.304550085784438zM-109.69899100566798,69.0299759034845L-29.158405557942316,37.32838317744482L-29.29830906086654,29.530148357159828z"
     style="fill:rgb(0,0,255);fill-opacity:1"
     id="path1757" />
  <path
     d="M-35.00435010513244,-71.39471137257739L101.892510164074,-64.65490268338952L-30.42287683578574,-72.13513981116492zM98.37893824900448,47.602213230833L101.96710976667711,45.491260740458785L-30.700511730724795,30.124536643905316zM-34.514540463628116,-71.9762019575092L-34.45209061944589,-63.79882828265288L101.8931836741278,-64.68434440687776zM-34.15500588440796,38.319565381296826L98.66274298536554,55.23396792022398L98.79200868120459,46.81474732417656z"
     style="fill:rgb(255,0,0);fill-opacity:1"
     id="path1759" />
  <path
     d="M99.62433679495174,-7.74612491433584L103.29549172732739,-9.293597921773078L-31.054610202256985,-20.375455084710293zM-34.5509605661731,-12.39465076675721L99.93224569499878,0.13956564446339842L100.06630907770446,-8.472704650503879zM-113.03755716713802,-58.73118050177877L-29.42387592372135,-72.09006024276849L-36.550085993806675,-72.43560687048718zM-112.81364319915626,-50.352841412078234L-29.83714679025794,-64.52311048459818L-29.972975140695088,-72.6560490384515z"
     style="fill:rgb(0,0,255);fill-opacity:1"
     id="path1761" />
  <path
     d="M100.90778383471007,-64.55902825980722L104.65174213641572,-65.49103525792246L-31.415856571155828,-72.08009197678751zM97.55692279879531,55.406272744759626L101.31070483256356,53.258787268168206L101.18159485108816,44.71329380375085zM-34.95521825784774,-64.32627797631054L101.23439089024592,-56.39765524823051L101.37342817904675,-65.21050079714719zM97.88838659588882,47.023665536630254L97.98672637810564,55.65093887376068L101.62345322208728,44.96728429046653z"
     style="fill:rgb(255,0,0);fill-opacity:1"
     id="path1763" />
  <path
     d="M98.78810179710548,0.26870052313225157L102.63447897948046,-1.322242864205514L102.48481481992702,-10.111843206311715z"
     style="fill:rgb(0,0,255);fill-opacity:1"
     id="path1765" />
  <path
     d="M105.04935727388714,48.89683265573146L108.59906137556568,46.77193817215102L110.84895786940986,-58.27839192818162z"
     style="fill:rgb(0,128,0);fill-opacity:1"
     id="path1767" />
  <path
     d="M99.13358433348071,-8.305394283394063L99.25015508240375,0.571724011550631L102.95316653050385,-9.799897169149375z"
     style="fill:rgb(0,0,255);fill-opacity:1"
     id="path1769" />
  <path
     d="M97.76931146197478,47.72076103767775L105.99132753204333,48.698931450634376L108.15090466399509,-57.51793151061686z"
     style="fill:rgb(0,128,0);fill-opacity:1"
     id="path1771" />
  <path
     d="M-116.59566808455979,59.87477788989348L-108.95238405817062,61.013530783825765L-34.766772664986775,29.169340088537403z"
     style="fill:rgb(0,0,255);fill-opacity:1"
     id="path1773" />
  <path
     d="M-863.5494724767253,-3.7596885193885L4918.392904138191,1246.5086461352307"
     style="fill:none;stroke:rgb(255,255,255);stroke-opacity:1;stroke-width:1;stroke-linecap:round"
     id="path1775" />
  <path
     d="M-109.46807391202083,60.42111911093539L-109.22179858792965,69.34446756359716L-28.792094765121266,29.851335932873017z"
     style="fill:rgb(0,0,255);fill-opacity:1"
     id="path1777" />
  <path
     d="M100.22693084176207,-57.45181169600767L98.25664966333706,48.28006446233488L108.63780834845447,-56.99090032113829zM107.62240701454547,-56.886574961558864L105.46739327632903,49.13904107255141L111.31817668274444,-57.91232485056814z"
     style="fill:rgb(0,128,0);fill-opacity:1"
     id="path1779" />
  <path
     d="M100.05647354218333,-56.32545670694804L103.98668679398936,-57.30793698397993L103.82292254199102,-66.36266465012775z"
     style="fill:rgb(255,0,0);fill-opacity:1"
     id="path1781" />
  <path
     d="M108.09138752377531,-56.250082598118986L111.79263364770623,-57.3967862896928L102.5035348224902,-57.829355610244804z"
     style="fill:rgb(0,128,0);fill-opacity:1"
     id="path1783" />
  <path
     d="M100.41781158525991,-65.09691579593685L100.54629450806935,-55.94996249434488L104.31148040857839,-65.98031358478845z"
     style="fill:rgb(255,0,0);fill-opacity:1"
     id="path1785" />
  <path
     d="M99.73664426220562,-56.80780089839823L109.07818200798494,-56.38021541747843L103.47608744037497,-57.933558381527334z"
     style="fill:rgb(0,128,0);fill-opacity:1"
     id="path1787" />
  <path
     d="M-119.86092304864637,-59.27231943004748L-112.0448222071022,-58.779656335416576L-35.55643713823604,-72.49635329780632zM-112.55861205977241,-59.321834447781534L-112.30837852370836,-49.93960586642216L-29.440425997481306,-72.2345140835338z"
     style="fill:rgb(0,0,255);fill-opacity:1"
     id="path1789" />
  <path
     d="M43.50750278484585,-41.120607519031395L101.69648660032499,-57.02881861391483L-34.93447713849684,-64.47159617735572z"
     style="fill:none;stroke:rgb(127,252,150);stroke-opacity:1;stroke-width:1;stroke-linecap:undefined;stroke-linejoin:undefined"
     id="path1791" />
  <path
     d="M45.850740659105256,84.06681047308594L109.10820006864212,46.31060899694578L100.94963206112739,45.36053592437671zM45.768090501441236,92.78728826967651L108.43555843886574,54.12788493868951L108.56463515426408,45.730236812507485z"
     style="fill:rgb(0,0,255);fill-opacity:1"
     id="path1793" />
  <path
     d="M41.6699239135427,80.81149852979051L98.73683355409015,47.52955541314178L100.9205627195959,-57.884296810502136z"
     style="fill:none;stroke:rgb(240,116,186);stroke-opacity:1;stroke-width:1;stroke-linecap:undefined;stroke-linejoin:undefined"
     id="path1795" />
  <path
     d="M-116.14035625076926,59.19427528119318L-115.73442972796981,68.49340977471995L-108.16543473558475,60.4440895835175zM-116.25713947276866,67.9051010085858L-108.2479849455961,69.19719036916062L-108.68819107763994,59.88199359500005z"
     style="fill:rgb(0,0,255);fill-opacity:1"
     id="path1797" />
  <path
     d="M-109.46543665987933,61.42316785247915L-103.76151742200437,59.238861693943996L-106.94775084393432,-52.43224889392751z"
     style="fill:rgb(0,128,0);fill-opacity:1"
     id="path1799" />
  <path
     d="M-107.93560532026832,-51.37835784655986L44.48937515798606,-41.219840392884926L-33.94335957865607,-64.53081605981582z"
     style="fill:none;stroke:rgb(127,252,150);stroke-opacity:1;stroke-width:1;stroke-linecap:undefined;stroke-linejoin:undefined"
     id="path1801" />
  <path
     d="M-116.146820133718,60.198745750553044L-108.47797221864523,61.3159489618087L-111.83416430372266,-51.56905222201167zM-119.15517279695882,-51.562754520060324L-115.63627682754212,60.7710297208987L-111.3225148348359,-51.035796097780434zM-112.34370145474418,-50.98302861673556L-108.98392327708402,61.74354210802827L-106.44295329769007,-52.01895347860224z"
     style="fill:rgb(0,128,0);fill-opacity:1"
     id="path1803" />
  <path
     d="M47.186480057489135,-48.75489269846956L111.99202304952031,-65.13992125937618L103.64648114978259,-65.55281969770473zM47.10368225060215,-39.44362909067298L111.3116206401737,-56.913963389874844L111.45191735911264,-65.72048592368809z"
     style="fill:rgb(0,0,255);fill-opacity:1"
     id="path1805" />
  <path
     d="M-111.93255473106808,-50.18054936135263L-105.95265605574107,-51.494315678502396L-114.60838927163515,-52.211384994831796zM-119.63053794819764,-50.9585556533093L-110.90490624968245,-50.288825165665784L-113.65644827778779,-52.23566769289319z"
     style="fill:rgb(0,128,0);fill-opacity:1"
     id="path1807" />
  <path
     d="M-119.3801316253416,-59.85565603460925L-118.93810188888189,-50.136439225431715L-111.24413710343615,-59.25506741577757zM-119.46444040487711,-50.68129191753156L-111.29714243053296,-50.037748324326444L-111.771308018323,-59.778741607697874z"
     style="fill:rgb(0,0,255);fill-opacity:1"
     id="path1809" />
  <path
     d="M-109.94885198710003,60.85158652154882L39.4884716062503,82.47688323231428L-104.26957087993262,58.65751255487255zM-109.49502106775842,60.1700283506095L-109.27110703174644,69.07921702868765L39.492832021784345,82.44218076495494z"
     style="fill:rgb(255,0,0);fill-opacity:1"
     id="path1811" />
  <path
     d="M-982.9567311680615,9.36672954719716L26867.131816368998,8051.215103400446"
     style="fill:none;stroke:rgb(255,255,255);stroke-opacity:1;stroke-width:1;stroke-linecap:round"
     id="path1813" />
  <path
     d="M-107.45551853977474,-51.96633787302573L-104.64333077186716,59.70024291357435L44.42267662861989,-41.64217776478226z"
     style="fill:none;stroke:rgb(67,107,238);stroke-opacity:1;stroke-width:1;stroke-linecap:undefined;stroke-linejoin:undefined"
     id="path1815" />
  <path
     d="M37.5732417732415,82.50237923553344L46.774189648181526,83.88183567445917L101.8802271900185,45.14757000119616zM46.26405689255591,83.27719371290314L46.18683426380232,93.02264282041814L109.01103368080956,45.974297815823796z"
     style="fill:rgb(0,0,255);fill-opacity:1"
     id="path1817" />
  <path
     d="M43.033083309131236,-41.763955250521036L42.09728004152778,81.05913000555456L101.39289557218194,-57.515068337002994z"
     style="fill:none;stroke:rgb(240,116,186);stroke-opacity:1;stroke-width:1;stroke-linecap:undefined;stroke-linejoin:undefined"
     id="path1819" />
  <path
     d="M-113.0443905547946,-58.849775994903354L40.69722432417821,-49.476743173777564L-107.1517624054131,-59.80182647155693zM38.56214115760324,82.65831638528829L43.22419685742945,79.91670520374632L-105.23080377335589,58.76613197559783zM-112.56349519001428,-59.430895160405505L-112.32562858412741,-50.07155584912107L40.69831259304251,-49.50791797069493z"
     style="fill:rgb(255,0,0);fill-opacity:1"
     id="path1821" />
  <path
     d="M-118.58988423813416,-58.394873401233355L-120.68134860261353,-144.4861868699348L-172.0881875086242,-144.2392940931621z"
     style="fill:rgb(255,0,255);fill-opacity:1"
     id="path1823" />
  <path
     d="M-109.77822918890028,68.50419496456655L38.93969490480885,91.5562335054337L38.974549584033184,81.86893006824397z"
     style="fill:rgb(255,0,0);fill-opacity:1"
     id="path1825" />
  <path
     d="M-105.15097096162398,59.1280690187712L42.78967364836246,80.67047478076178L43.92732569092102,-42.17528024991215z"
     style="fill:none;stroke:rgb(67,107,238);stroke-opacity:1;stroke-width:1;stroke-linecap:undefined;stroke-linejoin:undefined"
     id="path1827" />
  <path
     d="M38.71476405703122,-49.4533787410243L48.170146681441636,-48.84725188177264L104.63170589833004,-65.65715627871998zM47.67046049024871,-49.400521643505925L47.57990768563747,-39.0777049860656L111.95578794024522,-65.34150940163782z"
     style="fill:rgb(0,0,255);fill-opacity:1"
     id="path1829" />
  <path
     d="M39.71281782835199,-49.386721899918335L44.58624979764329,-50.599485471673795L-108.14443109577451,-59.75248858341205zM37.8217261772808,91.71071538448406L42.65987519291713,88.91710412136861L42.449885268323946,79.13012645838553z"
     style="fill:rgb(255,0,0);fill-opacity:1"
     id="path1831" />
  <path
     d="M-169.18861011110081,88.45618420677006L-11.80206387905801,115.57592731150392L-115.40838779180497,67.222847429579z"
     style="fill:rgb(204,85,0);fill-opacity:1"
     id="path1833" />
  <path
     d="M38.06784389216839,82.0665601759926L38.255703977941444,91.95495166237104L42.89614171408758,79.38279003832947zM-112.83729157546463,-50.60520362140874L40.13696672914221,-39.80356618724397L40.17691147713166,-50.03961254089477z"
     style="fill:rgb(255,0,0);fill-opacity:1"
     id="path1835" />
  <path
     d="M-12.725642913328038,115.74709094451778L31.260279021263447,89.57278260142137L-116.36719795750446,67.33084010677813z"
     style="fill:rgb(204,85,0);fill-opacity:1"
     id="path1837" />
  <path
     d="M38.01100922615781,81.74553185739796L38.05678421727861,91.8284093301942L47.54245625350787,83.25305697877873zM37.55603990918934,91.24159091061813L47.10936145907985,92.79724955554589L47.036882296084535,82.687221244839z"
     style="fill:rgb(0,0,255);fill-opacity:1"
     id="path1839" />
  <path
     d="M46.23742669256433,84.27889214501961L50.84947739206633,81.51591350982089L51.905766455547514,-41.83541595107716z"
     style="fill:rgb(0,128,0);fill-opacity:1"
     id="path1841" />
  <path
     d="M233.32060024498637,27.07357224449135L235.30277497362576,25.312069199756525M235.30277497362576,25.312069199756525L235.70765188098625,17.92847497972664M243.9037127569116,23.381145246839377L235.30277497362576,25.312069199756525M233.52322833463265,23.348453559478305L235.50503941278237,21.623445529884908"
     style="fill:none;stroke:rgb(255,255,255);stroke-opacity:1;stroke-width:1;stroke-linecap:round"
     id="path1843" />
  <path
     d="M37.96472952372594,82.749561987361L47.1795537615808,84.09403115983064L48.092546111358836,-40.76534489070027z"
     style="fill:rgb(0,128,0);fill-opacity:1"
     id="path1845" />
  <path
     d="M235.70765188098625,17.92847497972664L233.72620867633685,19.616859065878984M243.9037127569116,23.381145246839377L235.70765188098625,17.92847497972664M235.43330549338611,17.809138257746724L234.0463397571057,18.98842265621969M234.9251658962058,15.048714476687069L235.43330549338611,17.809138257746724M234.31676542225975,26.188308212278415L234.72201499645112,18.76833434418838M243.9037127569116,23.381145246839377L234.51921514151005,22.48152670748156M234.0463397571057,18.98842265621969L234.9251658962058,15.048714476687069"
     style="fill:none;stroke:rgb(255,255,255);stroke-opacity:1;stroke-width:1;stroke-linecap:round"
     id="path1847" />
  <path
     d="M39.12133887481381,-40.870402671643646L38.456934019341226,83.32208987991541L48.58588728829548,-40.23186178591361zM47.57193787541231,-40.13316383569531L46.662022309541214,84.52119342153635L52.38165469651834,-41.46934085406879z"
     style="fill:rgb(0,128,0);fill-opacity:1"
     id="path1849" />
  <path
     d="M233.72620867633685,19.616859065878984L233.32060024498637,27.07357224449135M243.9037127569116,23.381145246839377L233.32060024498637,27.07357224449135"
     style="fill:none;stroke:rgb(255,255,255);stroke-opacity:1;stroke-width:1;stroke-linecap:round"
     id="path1851" />
  <path
     d="M38.94279856631791,-39.74340537817607L44.0151219008557,-41.025744992403396L43.7703830806805,-51.47098897416121z"
     style="fill:rgb(255,0,0);fill-opacity:1"
     id="path1853" />
  <path
     d="M243.9037127569116,23.381145246839377L233.72620867633685,19.616859065878984M233.72620867633685,19.616859065878984L-1282630.0539567708,-474464.71584987524"
     style="fill:none;stroke:rgb(255,255,255);stroke-opacity:1;stroke-width:1;stroke-linecap:round"
     id="path1855" />
  <path
     d="M48.0320888548855,-39.45017980344688L52.86014013577934,-40.946390531903184L42.5458769779029,-41.60066391690303z"
     style="fill:rgb(0,128,0);fill-opacity:1"
     id="path1857" />
  <path
     d="M39.2165947588985,-49.93001915116396L39.435989515726455,-39.36845916322702L44.264260672029515,-51.089358214948504z"
     style="fill:rgb(255,0,0);fill-opacity:1"
     id="path1859" />
  <path
     d="M38.63803916211233,-40.22627757229221L49.02188387079346,-39.57672157504645L43.5147329153134,-41.69506373027265z"
     style="fill:rgb(0,128,0);fill-opacity:1"
     id="path1861" />
  <path
     d="M39.20529035785504,-50.079105860494394L39.27065148559782,-39.47061110093338L48.98932670035161,-49.34990923920061zM38.765937154761815,-40.014246249896914L48.56838424080017,-39.23378116658642L48.47976539859222,-49.876664556938394z"
     style="fill:rgb(0,0,255);fill-opacity:1"
     id="path1863" />
  <path
     d="M-1126.6974018806116,25.16811513818264L32018.992740803526,14425.510995416618M-1303.0535419955547,44.55491330379589L15095.74148107377,14425.510995416893"
     style="fill:none;stroke:rgb(255,255,255);stroke-opacity:1;stroke-width:1;stroke-linecap:round"
     id="path1865" />
  <g
     inkscape:groupmode="layer"
     id="layer1"
     inkscape:label="Layer 1" />
</svg>
