<?xml version="1.0" encoding="UTF-8" standalone="no"?>
<svg
   xmlns:dc="http://purl.org/dc/elements/1.1/"
   xmlns:cc="http://creativecommons.org/ns#"
   xmlns:rdf="http://www.w3.org/1999/02/22-rdf-syntax-ns#"
   xmlns:svg="http://www.w3.org/2000/svg"
   xmlns="http://www.w3.org/2000/svg"
   xmlns:sodipodi="http://sodipodi.sourceforge.net/DTD/sodipodi-0.dtd"
   xmlns:inkscape="http://www.inkscape.org/namespaces/inkscape"
   viewBox="-405.5 -328.5 811 657"
   width="811"
   height="657"
   style="background-color: rgb(255, 255, 255);"
   version="1.1"
   id="svg1599"
   sodipodi:docname="anotherWorld-side-view.svg"
   inkscape:version="1.0.2-2 (e86c870879, 2021-01-15)">
  <metadata
     id="metadata1605">
    <rdf:RDF>
      <cc:Work
         rdf:about="">
        <dc:format>image/svg+xml</dc:format>
        <dc:type
           rdf:resource="http://purl.org/dc/dcmitype/StillImage" />
        <dc:title></dc:title>
      </cc:Work>
    </rdf:RDF>
  </metadata>
  <defs
     id="defs1603" />
  <sodipodi:namedview
     pagecolor="#000000"
     bordercolor="#666666"
     borderopacity="1"
     objecttolerance="10"
     gridtolerance="10"
     guidetolerance="10"
     inkscape:pageopacity="0"
     inkscape:pageshadow="2"
     inkscape:window-width="1280"
     inkscape:window-height="961"
     id="namedview1601"
     showgrid="false"
     inkscape:zoom="0.75494673"
     inkscape:cx="405.5"
     inkscape:cy="328.5"
     inkscape:window-x="1358"
     inkscape:window-y="-8"
     inkscape:window-maximized="1"
     inkscape:current-layer="svg1599" />
  <path
     d="M228.8200870442477,3.2682891873050597L-1516.751950338537,630.1496770691546M228.8200870442477,-3.2682891873050886L-1516.751950338537,-630.1496770691546"
     style="fill:none;stroke:rgb(255,255,255);stroke-opacity:1;stroke-width:1;stroke-linecap:round"
     id="path1531" />
  <path
     d="M-97.11420991263547,-60.11607260197128L-7.576980379023333,-4.232390470003596L-7.935993980934796,-733.3889734034657z"
     style="fill:rgb(139,0,139);fill-opacity:1"
     id="path1533" />
  <path
     d="M-79306.91552395643,4.807586532209807e-12L-396.53457761978075,-2.4280740061665618e-14M-71376.22397156079,4.807586532209807e-12L-356.8811198578027,-2.4280740061665618e-14M-63445.53241916512,4.807586532209807e-12L-317.22766209582454,-2.4280740061665618e-14M-55514.84086676948,4.807586532209807e-12L-277.5742043338465,-2.4280740061665618e-14M-47584.14931437385,4.807586532209807e-12L-237.92074657186842,-2.4280740061665618e-14M-39653.457761978214,4.807586532209808e-12L-198.26728880989032,-2.4280740061665615e-14M-31722.766209582856,4.807586532209852e-12L-158.61383104791219,-2.4280740061665615e-14M-396.53457761978075,-2.4280740061665618e-14L396.53457761978103,-2.4280740061665608e-14M-23792.07465718693,4.807586532209808e-12L-118.96037328593411,-2.4280740061665615e-14M-15861.38310479129,4.807586532209808e-12L-79.30691552395602,-2.4280740061665615e-14M-7930.691552395648,4.807586532209808e-12L-39.65345776197793,-2.4280740061665615e-14M-4.680051285079742e-12,4.807586532209808e-12L1.5181598719173122e-13,-2.4280740061665615e-14M7930.691552395637,4.807586532209808e-12L39.653457761978245,-2.4280740061665615e-14M15861.383104791279,4.807586532209808e-12L79.30691552395632,-2.4280740061665615e-14M23792.074657186924,4.807586532209808e-12L118.96037328593442,-2.4280740061665615e-14M31722.76620958228,4.807586532209764e-12L158.61383104791253,-2.4280740061665615e-14M39653.457761978214,4.807586532209807e-12L198.26728880989057,-2.4280740061665615e-14M47584.14931437385,4.807586532209807e-12L237.92074657186868,-2.4280740061665608e-14M55514.84086676948,4.807586532209807e-12L277.57420433384675,-2.4280740061665608e-14M63445.53241916512,4.807586532209807e-12L317.2276620958249,-2.4280740061665608e-14M71376.22397156079,4.807586532209807e-12L356.88111985780296,-2.4280740061665608e-14M79306.91552395643,4.807586532209807e-12L396.53457761978103,-2.4280740061665608e-14M-417.4048185471376,-2.300280637420953e-14L417.4048185471379,-2.300280637420952e-14M-440.5939751330897,-2.1582880054813877e-14L440.59397513309,-2.1582880054813868e-14M-466.5112677879773,-1.999590358019521e-14L466.51126778797766,-1.99959035801952e-14M-495.66822202472594,-1.821055504624921e-14L495.6682220247264,-1.8210555046249205e-14M-528.7127701597076,-1.6187160041110405e-14L528.7127701597082,-1.6187160041110405e-14"
     style="fill:none;stroke:rgb(255,255,255);stroke-opacity:1;stroke-width:1;stroke-linecap:round"
     id="path1535" />
  <path
     d="M-2228.968377449545,17.33815807827306L-7308.974768369685,56.89230295672273L-78.51316333277045,56.89760669015101z"
     style="fill:rgb(255,165,0);fill-opacity:1"
     id="path1537" />
  <path
     d="M-566.4779680282583,-1.3874708606666064e-14L566.4779680282586,-1.3874708606666059e-14"
     style="fill:none;stroke:rgb(255,255,255);stroke-opacity:1;stroke-width:1;stroke-linecap:round"
     id="path1539" />
  <path
     d="M-96.62993734502463,-8845.389685268054L-96.68979273867143,-59.351166249139865L-7.930568816387715,-732.3890472838124z"
     style="fill:rgb(139,0,139);fill-opacity:1"
     id="path1541" />
  <path
     d="M-610.0531963381243,-1.1206495413076435e-14L610.0531963381246,-1.1206495413076427e-14M-660.8909626996345,-8.093580020555201e-15L660.890962699635,-8.093580020555193e-15"
     style="fill:none;stroke:rgb(255,255,255);stroke-opacity:1;stroke-width:1;stroke-linecap:round"
     id="path1543" />
  <path
     d="M-80.08971210140915,0.49409205862617434L-72.36571000248888,0.49996949243243693L-72.80006216207751,-46.5058225133589zM-79.93828336171924,-50.42300942264329L-79.58451417746454,0.9948703005276454L-72.37456272244147,-45.74357001825505z"
     style="fill:rgb(170,0,170);fill-opacity:1"
     id="path1545" />
  <path
     d="M-720.9719593086922,-4.4146800112119264e-15L720.9719593086927,-4.4146800112119185e-15"
     style="fill:none;stroke:rgb(255,255,255);stroke-opacity:1;stroke-width:1;stroke-linecap:round"
     id="path1547" />
  <path
     d="M-73.86162809898421,-50.40239406246524L-72.37250005237019,-49.37584073875231L73.28460968741597,-49.65840279703925zM73.86162809898448,50.402394062465234L72.37250005237046,49.3758407387523L-73.2846096874157,49.65840279703923z"
     style="fill:rgb(255,0,0);fill-opacity:1"
     id="path1549" />
  <path
     d="M71.87184226245031,-49.877783253726484L72.28130172778026,50.65993715275631L73.3656083971455,-50.89889314791188zM-73.36697889577363,50.89983676920333L-71.87042035783128,49.87681773053162L-72.28135313377032,-50.65991525085295zM71.86712608800332,49.87679316936474L73.36368440992851,50.8998611308498L72.95284331013724,-51.11670615638118z"
     style="fill:rgb(0,128,0);fill-opacity:1"
     id="path1551" />
  <path
     d="M73.86118158866059,-50.40052413957031L-73.94951600781906,-50.118307139609776L72.37295146190932,-49.37459743042752zM-73.86118158866032,50.40052413957029L73.94951600781933,50.11830713960977L-72.37295146190905,49.3745974304275z"
     style="fill:rgb(255,0,0);fill-opacity:1"
     id="path1553" />
  <path
     d="M-73.36228680983632,-50.89891339326044L-72.95283367070118,51.11672825780496L-71.86853332753074,-49.8777630083779zM72.44951841752098,-50.61682831980038L72.91340381247703,51.11543327920078L80.7805849538612,-50.61534420828244zM72.4109550294048,50.61524989642017L80.7469645102868,50.61673302808104L80.28053959926473,-51.11524367561919z"
     style="fill:rgb(0,128,0);fill-opacity:1"
     id="path1555" />
  <path
     d="M-73.44951585067994,-57.91330845099306L-73.44880637620467,-49.5900644709687L73.94880376294618,-57.4367508091909zM-73.94881110386895,-50.090153106896125L73.4837085225774,-49.617910270100964L73.41462104523079,-57.93710839905844zM-73.44951585067994,49.615123384742986L-73.44880637620467,57.93836736476734L73.94880376294618,50.09168102654515zM-73.94881110386895,57.43827872883991L73.4837085225774,57.9105215656351L73.41462104523079,49.59132343667761z"
     style="fill:rgb(255,0,0);fill-opacity:1"
     id="path1557" />
  <path
     d="M-73.44951585067994,-4.149092533125035L-73.44880637620467,4.174151446899319L73.94880376294618,-3.6725348913228633zM-73.94881110386895,3.674062810971895L73.4837085225774,4.146305647767069L73.41462104523079,-4.172892481190407z"
     style="fill:rgb(0,0,255);fill-opacity:1"
     id="path1559" />
  <path
     d="M-80.7444703567506,-50.616828319800376L-80.28058496179455,51.11543327920077L-72.41340382041038,-50.61534420828243zM-80.78303374486677,50.61524989642016L-72.44702426398477,50.616733028081036L-72.91344917500685,-51.11524367561918z"
     style="fill:rgb(0,128,0);fill-opacity:1"
     id="path1561" />
  <path
     d="M88.55315432140542,-61.02954843242785L71.37284404727743,-49.35830776522689L79.71212580327844,-49.27892243577225zM71.88751547268325,-57.08458472971532L71.97736594912897,-48.765491460626286L88.54478092232716,-69.82920721331061zM-97.50743421328596,-60.81031450229877L-79.58861584331159,-49.3756385773936L-71.32611705776628,-49.48082555373462zM-88.7425111822576,-60.729667441004125L-71.84511029661313,-48.87757367173385L-71.82204086526788,-57.28799934851094zM-88.55315432140519,61.02954843242787L-71.37284404727716,49.358307765226876L-79.71212580327818,49.27892243577224zM-88.54209024198619,69.83343382985672L-71.86335752449803,57.078382134844425L-72.0042145776544,48.7674674389511zM97.5074342132862,60.8103145022988L79.58861584331184,49.37563857739358L71.32611705776655,49.480825553734604zM71.87557016420367,48.872406652739436L71.79342152417962,57.29499310189125L88.74067065575609,60.727840706618224z"
     style="fill:rgb(0,0,255);fill-opacity:1"
     id="path1563" />
  <path
     d="M231.17204844751623,3.3018827853259145L228.8200870442477,3.2682891873050597M228.8200870442477,3.2682891873050597L228.8200870442477,-3.2682891873050886M228.8200870442477,-3.2682891873050886L231.17204844751623,-3.3018827853259416M237.92074657186868,-1.456844403699936e-14L228.8200870442477,3.2682891873050597M237.92074657186868,-1.456844403699936e-14L228.8200870442477,-3.2682891873050886M231.17204844751623,-1.3905632249914787e-14L228.8200870442477,-1.4258223392067185e-14M229.16982561492867,-3.6006130114343966L230.8161766971589,-3.6264797376151288M229.99005490129656,-6.570000206985811L229.16982561492867,-3.6006130114343966M229.99005490129656,-1.4082829228529824e-14L-79068.99477738256,4.8415795682960156e-12M237.92074657186868,-1.456844403699936e-14L231.17204844751623,3.3018827853259145M237.92074657186868,-1.456844403699936e-14L231.17204844751623,-3.3018827853259416M230.8161766971589,-3.6264797376151288L229.99005490129656,-6.570000206985811M237.92074657186868,-1.456844403699936e-14L229.99005490129656,-1.4082829228529824e-14M229.99005490129656,3.2850001034928846L229.99005490129656,-3.285000103492913M-793.0691552395615,1.9251170067008934e-30L793.0691552395621,1.3715414285927707e-29M231.17204844751623,-3.3018827853259416L231.17204844751623,3.3018827853259145M231.17204844751623,3.3018827853259145L-129763.80625460985,63604.928405956365M231.17204844751623,-3.3018827853259416L-129763.80625460985,-63604.928405956365"
     style="fill:none;stroke:rgb(255,255,255);stroke-opacity:1;stroke-width:1;stroke-linecap:round"
     id="path1565" />
  <path
     d="M71.56322778639739,-48.983948819609054L88.27675514627805,-60.13059336489817L88.12549031388818,-70.02321121149427zM71.40190965734516,56.47868313147983L88.25492502167354,69.93968202100194L88.30863856754492,59.947850071341676zM97.54954909865451,-60.61014602965314L87.6358709009541,-60.75025839937187L78.79255801718023,-48.99330602457317zM-87.7497468065523,-60.63403603866528L-97.58376669406147,-60.54448505475954L-71.41600268835244,-49.17518936017336zM-88.23088233005514,-69.94324637789401L-88.33162367272115,-59.94029842160572L-71.4029672437866,-56.48267042432368zM-97.54954909865427,60.61014602965316L-87.63587090095388,60.750258399371894L-78.79255801717997,48.99330602457316zM-88.25638039303148,60.12434003069262L-88.1476792477718,70.0253811774521L-71.56141360575961,48.988032187856795zM87.74974680655252,60.63403603866531L97.58376669406171,60.54448505475956L71.4160026883527,49.17518936017334z"
     style="fill:rgb(0,0,255);fill-opacity:1"
     id="path1567" />
  <path
     d="M-87.37816455037925,-60.18641987119837L-87.28972743298966,60.46972969500406L87.78972704822824,-59.96910940352692zM-87.79010663182416,59.9691792517758L87.38025921727143,60.18579519368439L87.28801234969413,-60.4691748657389z"
     style="fill:none;stroke:rgb(127,127,255);stroke-opacity:1;stroke-width:1;stroke-linecap:undefined;stroke-linejoin:undefined"
     id="path1569" />
  <path
     d="M86.46549971620423,-59.90347419449798L86.87417315958639,60.685783560284335L88.25708489690516,-61.12918945177355z"
     style="fill:rgb(0,128,0);fill-opacity:1"
     id="path1571" />
  <path
     d="M88.75253716204756,60.63269268732591L86.96604811635265,59.401857572348675L-87.87815692946188,59.68393129238349zM-88.75253716204732,-60.63269268732588L-86.9660481163524,-59.401857572348646L87.87815692946214,-59.683931292383484z"
     style="fill:rgb(255,0,0);fill-opacity:1"
     id="path1573" />
  <path
     d="M-88.25822469689476,61.12997390253807L-86.46431843366132,59.90267041502737L-86.87421464213894,-60.68576423157819z"
     style="fill:rgb(0,128,0);fill-opacity:1"
     id="path1575" />
  <path
     d="M88.75216777183428,-60.63055440628141L-88.84042479029975,-60.348767350492295L86.96642182779695,-59.40024039710304z"
     style="fill:rgb(255,0,0);fill-opacity:1"
     id="path1577" />
  <path
     d="M-88.25308696966722,-61.12921465475946L-87.84441986850717,61.346864152982434L-86.46151447341052,-59.90344899151206zM86.46034147360257,59.902640835229896L88.25424758554053,61.130003269208515L87.84443225244259,-61.34684461114926z"
     style="fill:rgb(0,128,0);fill-opacity:1"
     id="path1579" />
  <path
     d="M-88.75216777183404,60.63055440628142L88.84042479029999,60.348767350492324L-86.9664218277967,59.40024039710305z"
     style="fill:rgb(255,0,0);fill-opacity:1"
     id="path1581" />
  <path
     d="M87.34048419699783,-69.63841664251832L87.49679013231456,-59.4836824900849L97.46805276207878,-69.48662902597277zM86.98740153511793,-59.99280127528056L97.1528856955775,-59.84768880624086L96.94908280309907,-69.98419513465126zM-97.12441484473048,-69.63841664251832L-96.96810890941376,-59.4836824900849L-86.99684627964955,-69.48662902597277zM-97.47749750661039,-59.99280127528056L-87.31201334615083,-59.84768880624086L-87.51581623862926,-69.98419513465126zM-97.12441484473048,59.83938781573125L-96.96810890941376,69.99412196816469L-86.99684627964955,59.99117543227682zM-97.47749750661039,69.48500318296902L-87.31201334615083,69.63011565200873L-87.51581623862926,59.49360932359832zM87.34048419699783,59.83938781573125L87.49679013231456,69.99412196816469L97.46805276207878,59.99117543227682zM86.98740153511793,69.48500318296902L97.1528856955775,69.63011565200873L96.94908280309907,59.49360932359832z"
     style="fill:rgb(0,0,255);fill-opacity:1"
     id="path1583" />
  <path
     d="M-97.12447124377853,-60.84695424322919L-96.6606161013627,61.34557192436817L-87.30428343690603,-60.84549776712617zM-97.16265336557838,60.84542008036563L-87.33835694314718,60.846875795518L-87.80431750753549,-61.34541578989638z"
     style="fill:rgb(0,128,0);fill-opacity:1"
     id="path1585" />
  <path
     d="M-88.34042654229492,59.84553680560652L-88.33973163109945,69.65731010087879L88.83972982445678,60.32183881499645zM-88.83973546916755,69.157237373058L88.36884305237423,69.63011583603796L88.31132076573164,59.82137547817204zM-88.34042654229492,-69.63226799731004L-88.33973163109945,-59.82049470203777L88.83972982445678,-69.15596598792013zM-88.83973546916755,-60.32056742985856L88.36884305237423,-59.84768896687861L88.31132076573164,-69.65642932474454z"
     style="fill:rgb(255,0,0);fill-opacity:1"
     id="path1587" />
  <path
     d="M87.34042828899116,-60.8469542432292L87.80428343140699,61.34557192436818L97.16061609586366,-60.845497767126176zM87.30224616719131,60.845420080365635L97.12654258962252,60.84687579551801L96.6605820252342,-61.345415789896386z"
     style="fill:rgb(0,128,0);fill-opacity:1"
     id="path1589" />
  <path
     d="M-881.1879502661794,5.395720013703472e-15L881.1879502661801,5.395720013703486e-15"
     style="fill:none;stroke:rgb(255,255,255);stroke-opacity:1;stroke-width:1;stroke-linecap:round"
     id="path1591" />
  <path
     d="M-96.57308764778698,-68.13357108822235L-96.35680810317889,-157.04902943524954L-107.6418995728349,-175.27109122093276z"
     style="fill:rgb(255,0,255);fill-opacity:1"
     id="path1593" />
  <path
     d="M89.77914491815366,78.09467594521824L79.17999386493517,68.80084983910739L-97.62389638291215,69.10791298602854zM-109.56590048932735,78.03303369402582L89.90279330623495,77.76470988761851L-96.71765911910182,68.81636251946301z"
     style="fill:rgb(204,85,0);fill-opacity:1"
     id="path1595" />
  <path
     d="M-991.3364440494519,1.2140370030832807e-14L991.3364440494526,1.2140370030832826e-14M-1132.9559360565163,2.0812062909999095e-14L1132.9559360565174,2.0812062909999127e-14M-1321.781925399269,3.237432008222081e-14L1321.7819253992702,3.237432008222085e-14M-1586.138310479123,4.856148012333121e-14L1586.1383104791241,4.8561480123331273e-14M-1982.6728880989037,7.28422201849968e-14L1982.672888098905,7.284222018499691e-14M-2643.5638507985377,1.133101202877728e-13L2643.563850798541,1.1331012028777298e-13M-3965.345776197805,1.9424592049332474e-13L3965.3457761978125,1.9424592049332514e-13M-7930.691552395603,4.370533211099803e-13L7930.691552395632,4.3705332110998197e-13"
     style="fill:none;stroke:rgb(255,255,255);stroke-opacity:1;stroke-width:1;stroke-linecap:round"
     id="path1597" />
</svg>
