<?xml version="1.0" encoding="UTF-8" standalone="no"?>
<svg
   xmlns:dc="http://purl.org/dc/elements/1.1/"
   xmlns:cc="http://creativecommons.org/ns#"
   xmlns:rdf="http://www.w3.org/1999/02/22-rdf-syntax-ns#"
   xmlns:svg="http://www.w3.org/2000/svg"
   xmlns="http://www.w3.org/2000/svg"
   xmlns:sodipodi="http://sodipodi.sourceforge.net/DTD/sodipodi-0.dtd"
   xmlns:inkscape="http://www.inkscape.org/namespaces/inkscape"
   viewBox="-405.5 -328.5 811 657"
   width="811"
   height="657"
   style="background-color: rgb(255, 255, 255);"
   version="1.1"
   id="svg1447"
   sodipodi:docname="anotherWorld.svg"
   inkscape:version="1.0.2-2 (e86c870879, 2021-01-15)">
  <metadata
     id="metadata1453">
    <rdf:RDF>
      <cc:Work
         rdf:about="">
        <dc:format>image/svg+xml</dc:format>
        <dc:type
           rdf:resource="http://purl.org/dc/dcmitype/StillImage" />
      </cc:Work>
    </rdf:RDF>
  </metadata>
  <defs
     id="defs1451" />
  <sodipodi:namedview
     pagecolor="#ffffff"
     bordercolor="#666666"
     borderopacity="1"
     objecttolerance="10"
     gridtolerance="10"
     guidetolerance="10"
     inkscape:pageopacity="0"
     inkscape:pageshadow="2"
     inkscape:window-width="1280"
     inkscape:window-height="961"
     id="namedview1449"
     showgrid="false"
     inkscape:zoom="1.13"
     inkscape:cx="405.5"
     inkscape:cy="328.50003"
     inkscape:window-x="1358"
     inkscape:window-y="-8"
     inkscape:window-maximized="1"
     inkscape:current-layer="svg1447" />
  <path
     d="M-405.50000078820295,328.49999971340367L405.50000078820295,328.49999971340367M405.50000078820295,-328.49999971340367L-405.50000078820295,-328.49999971340367M-405.4999795719181,328.5000054542583L-405.50000078820295,328.49999971340367M405.4999795719181,328.5000054542583L405.50000078820295,328.49999971340367M-405.4999795719181,-328.5000054542583L-405.50000078820295,-328.49999971340367M405.4999795719181,-328.5000054542583L405.50000078820295,-328.49999971340367M0,3.3543636054829347e-29L0,3.354363655466848e-33M-405.50000078820295,3.354363655466848e-33L405.50000078820295,3.354363655466848e-33M0,328.49999971340367L0,-328.49999971340367"
     style="fill:none;stroke:rgb(255,255,255);stroke-opacity:1;stroke-width:1;stroke-linecap:round"
     id="path1371" />
  <path
     d="M-770.4700536283841,-770.4701011505522L-770.3235496286321,770.823664404524L770.823549626374,-770.3236168846146zM-770.8236070026085,770.3236070398628L770.4702159746098,770.4700536042869L770.3234446586409,-770.8236070135074z"
     style="fill:rgb(0,0,68);fill-opacity:1"
     id="path1373" />
  <path
     d="M-610.0531963381244,-3.7354984710254796e-14L610.0531963381244,-3.7354984710254796e-14M-366.0319178028747,-3.7354984710254796e-14L-47584.14931437388,1.4082829235766106e-12M-305.0265981690622,-3.7354984710254796e-14L-39653.45776197823,1.4082829235766106e-12M-244.0212785352498,-3.7354984710254796e-14L-31722.76620958258,1.4082829235766106e-12M-183.01595890143736,-3.7354984710254796e-14L-23792.07465718694,1.4082829235766106e-12M-122.0106392676249,-3.7354984710254796e-14L-15861.38310479129,1.4082829235766106e-12M-61.00531963381245,-3.7354984710254796e-14L-7930.691552395645,1.4082829235766106e-12M0,-3.7354984710254796e-14L0,1.4082829235766106e-12M61.00531963381245,-3.7354984710254796e-14L7930.691552395645,1.4082829235766106e-12M122.0106392676249,-3.7354984710254796e-14L15861.38310479129,1.4082829235766106e-12M183.01595890143736,-3.7354984710254796e-14L23792.07465718694,1.4082829235766106e-12M244.0212785352498,-3.7354984710254796e-14L31722.76620958258,1.4082829235766106e-12M305.0265981690622,-3.7354984710254796e-14L39653.45776197823,1.4082829235766106e-12M366.0319178028747,-3.7354984710254796e-14L47584.14931437388,1.4082829235766106e-12M-660.8909626996348,-3.642111009249842e-14L660.8909626996348,-3.642111009249842e-14"
     style="fill:none;stroke:rgb(255,255,255);stroke-opacity:1;stroke-width:1;stroke-linecap:round"
     id="path1375" />
  <path
     d="M 185.28094,5.4968502 6.5121205,5.6814661 188.26934,153.04475 Z"
     style="fill:#ffa500;fill-opacity:1"
     id="path1377"
     sodipodi:nodetypes="cccc" />
  <path
     d="M-754.4329218788789,5.991703623399096L-19156.235463300218,152.23949637172092L8.40104211765216,5.991861788813743z"
     style="fill:rgb(238,119,0);fill-opacity:1"
     id="path1379" />
  <path
     d="M-720.9719593086926,-3.5317440089695436e-14L720.9719593086926,-3.5317440089695436e-14M-793.0691552395618,-3.399303608633186e-14L793.0691552395618,-3.399303608633186e-14M-881.1879502661797,-3.237432008222081e-14L881.1879502661797,-3.237432008222081e-14M-991.3364440494522,-3.035092507708201e-14L991.3364440494522,-3.035092507708201e-14M-1132.9559360565167,-2.7749417213332124e-14L1132.9559360565167,-2.7749417213332124e-14"
     style="fill:none;stroke:rgb(255,255,255);stroke-opacity:1;stroke-width:1;stroke-linecap:round"
     id="path1381" />
  <path
     d="M-19156.235479026793,152.23553103689727L188.80357033104366,152.54591846301014L7.512105870524145,5.677642367672321z"
     style="fill:rgb(238,119,0);fill-opacity:1"
     id="path1383" />
  <path
     d="M-1321.7819253992695,-2.4280740061665608e-14L1321.7819253992695,-2.4280740061665608e-14M-1586.1383104791237,-1.942459204933249e-14L1586.1383104791237,-1.942459204933249e-14"
     style="fill:none;stroke:rgb(255,255,255);stroke-opacity:1;stroke-width:1;stroke-linecap:round"
     id="path1385" />
  <path
     d="M187.4146344571947,-133.38911374258058L187.5030153417105,0.7838474913738916L382.2577539180611,-133.17184713859163zM187.00267461795522,0.2833527600628059L381.8480166865939,0.4999954720798325L381.75621369035906,-133.67190641018144z"
     style="fill:rgb(170,0,170);fill-opacity:1"
     id="path1387" />
  <path
     d="m -187.5801,-151.36011 0.16546,-194.80453 -245.67023,0.13127 z"
     style="fill:#ff00ff;fill-opacity:1"
     id="path1389"
     sodipodi:nodetypes="cccc" />
  <path
     d="M-188.41463414632804,-19476.5386887688L-188.26818296747408,-132.0349992292838L19156.089042468986,-19476.39223915819zM-188.7681875368173,-132.53500379856797L19155.73550657232,-132.3885571894464L19155.589034113873,-19476.892238374043z"
     style="fill:rgb(139,0,139);fill-opacity:1"
     id="path1391" />
  <path
     d="M168.17854120326098,-133.07936902807427L168.56366896446337,133.8884941115415L173.1865285233429,-137.01989420089197zM-173.1869639400596,137.0202397244028L-168.1780829968135,133.07901123925328L-168.56369175419417,-133.88848184623143z"
     style="fill:rgb(0,128,0);fill-opacity:1"
     id="path1393" />
  <path
     d="M-188.91460693400353,-132.8837954125383L188.0225568628543,-132.5782685053395L193.50454548964663,-136.525821120809zM-188.00639433256907,132.59948560053925L-193.52070808910702,136.50420405414454L188.9146070031787,132.88419538400294z"
     style="fill:rgb(0,0,255);fill-opacity:1"
     id="path1395" />
  <path
     d="M168.17027126244392,133.07893865614662L173.17915215403207,137.0203120006155L172.79360243426893,-137.21069546915137zM-173.1787081192992,-137.01996229815018L-172.79358588280735,137.21070804135542L-168.17073184863838,-133.07930093081606z"
     style="fill:rgb(0,128,0);fill-opacity:1"
     id="path1397" />
  <path
     d="M-193.52073041553436,-136.49983241537024L-188.00637191700739,-132.59511378471115L193.61247272510886,-136.2151528142544zM-193.6124731593438,136.21548890489728L193.5337937037472,136.48004363701992L187.9933090630295,132.6145664724185z"
     style="fill:rgb(0,0,255);fill-opacity:1"
     id="path1399" />
  <path
     d="M-1982.6728880989044,-1.2140370030832803e-14L1982.6728880989044,-1.2140370030832803e-14"
     style="fill:none;stroke:rgb(255,255,255);stroke-opacity:1;stroke-width:1;stroke-linecap:round"
     id="path1401" />
  <path
     d="M172.28577100456855,-136.71080219836156L172.74954334276077,137.20945494697997L193.1487278432166,-136.70942186604316zM172.2486363815925,136.70938823043352L193.11341787747935,136.71076827526193L192.6487171115974,-137.20938738827078zM-193.11250018250317,-136.71080219836156L-192.64872784431094,137.20945494697997L-172.24954334385512,-136.70942186604316zM-193.14963480547922,136.70938823043352L-172.28485330959236,136.71076827526193L-172.74955407547432,-137.20938738827078z"
     style="fill:rgb(0,128,0);fill-opacity:1"
     id="path1403" />
  <path
     d="M-193.11249504152684,-156.5381141559503L-193.11180080954728,-135.68442471668635L193.61180043257673,-156.0632324775948zM-193.6118025710512,-136.18445812132236L193.12510065152156,-135.71092991381585L193.099197338027,-156.56365413496988zM-193.11249504152684,135.7101570174962L-193.11180080954728,156.56384645676013L193.61180043257673,136.1850386958517zM-193.6118025710512,156.06381305212412L193.12510065152156,156.53734125963064L193.099197338027,135.6846170384766z"
     style="fill:rgb(0,0,255);fill-opacity:1"
     id="path1405" />
  <path
     d="M-381.3817683645741,152.0461807847048L-745.4811402309934,297.5257414939778L-186.9307920415152,152.10577806974948z"
     style="fill:rgb(204,85,0);fill-opacity:1"
     id="path1407" />
  <path
     d="M172.41420132227236,-156.20293177514392L172.43585954707024,-135.35361274976904L346.29302301581873,-312.76672688953937zM171.86459746369553,-135.94130320605618L192.70461922044632,-135.9215770066821L386.05405473031044,-272.980203672423zM172.3936068310657,135.4005979758154L172.37051669282937,156.25899721376862L346.37896036126625,273.0102178720076zM171.89311002450063,135.90180503922383L346.33765662913453,273.06354971061637L192.7390464079565,135.87772913532112zM-346.2925679825816,312.7672359451923L-172.40517349111553,156.20229844715575L-172.44534241146417,135.35373702210435zM-192.70426478815756,135.92160397575663L-386.0541221821419,272.9801511163524L-171.86488444415278,135.9413287930523zM-346.37939890038996,-273.00967563601483L-172.38336144582024,-135.40132260457187L-172.38032353895116,-156.2588148210049zM-192.73958542822967,-135.8777024918646L-171.89267535947576,-135.90177932096282L-346.3375522738862,-273.0636020723339z"
     style="fill:rgb(255,0,0);fill-opacity:1"
     id="path1409" />
  <path
     d="M172.286520660514,-10.385994400241437L172.29325698835265,10.499561900301165L346.5633062362947,-19.94029667649006z"
     style="fill:rgb(0,0,255);fill-opacity:1"
     id="path1411" />
  <path
     d="M-2643.563850798539,6.516888038595248e-30L2643.563850798539,6.516888038595248e-30"
     style="fill:none;stroke:rgb(255,255,255);stroke-opacity:1;stroke-width:1;stroke-linecap:round"
     id="path1413" />
  <path
     d="M-745.516769068866,297.3403840387227L-366.76903205379114,297.52955411982197L-187.04271647109454,151.79034058710016z"
     style="fill:rgb(204,85,0);fill-opacity:1"
     id="path1415" />
  <path
     d="M172.04311120513856,-135.5441546617078L345.9691930888342,-272.23111024599837L345.91655056247896,-312.9320483016061zM345.4642034716248,-272.73158412546263L171.97225065158835,-135.6312689242687L386.14585908609916,-272.69100180672024zM171.99953560555952,155.42373832428206L345.94726180691384,312.9100898832283L345.9820574439783,272.2002141782324zM345.4444986390002,272.7545634172574L386.1335878052614,272.7097367496453L191.83095594148102,135.589554689549zM-345.9646649835508,272.23049869466485L-345.9214533668008,312.9321585169627L-172.04273650610008,135.54465599768486zM-386.1461460907263,272.69105301677575L-345.46376655964076,272.7316384594461L-171.97240055894525,135.6311633802298zM-345.94219236253304,-312.9105867465818L-345.98679622104163,-272.2000448765326L-171.999866272877,-155.4234107626281zM-386.13323512760996,-272.70968484333764L-191.83076962315343,-135.58966003446005L-345.4450376349792,-272.7545099786539z"
     style="fill:rgb(255,0,0);fill-opacity:1"
     id="path1417" />
  <path
     d="M171.7940225156497,9.97060508534766L346.0770102613307,20.355329387990057L346.05782207947124,-20.412569885122515z"
     style="fill:rgb(0,0,255);fill-opacity:1"
     id="path1419" />
  <path
     d="M345.07154519251367,-312.57680304955977L345.2202105019226,-271.56578047923034L386.07632848616635,-312.42895900467306zM344.7180161343268,-272.0679609717996L385.7313044146439,-271.9215816860791L385.5722219844926,-312.92854152272383zM345.07154519251367,271.9197391884622L345.2202105019226,312.9307617587917L386.07632848616635,272.0675832333489zM344.7180161343268,312.4285812662224L385.7313044146439,312.5749605519429L385.5722219844926,271.5680007152981zM-385.7249970455083,271.9197391884622L-385.57633173609935,312.9307617587917L-344.7202137518556,272.0675832333489zM-386.0785261036952,312.4285812662224L-345.0652378233781,312.5749605519429L-345.22432025352936,271.5680007152981zM-385.7249970455083,-312.57680304955977L-385.57633173609935,-271.56578047923034L-344.7202137518556,-312.42895900467306zM-386.0785261036952,-272.0679609717996L-345.0652378233781,-271.9215816860791L-345.22432025352936,-312.92854152272383z"
     style="fill:rgb(255,0,0);fill-opacity:1"
     id="path1421" />
  <path
     d="M345.07154519251367,-20.328531930548788L345.2202105019226,20.682490639780646L386.07632848616635,-20.180687885662113zM344.7180161343268,20.180310147211358L385.7313044146439,20.32668943293189L385.5722219844926,-20.680270403712843z"
     style="fill:rgb(0,0,255);fill-opacity:1"
     id="path1423" />
  <path
     d="M-346.07154716551656,-272.92167576306093L-345.9640703702988,273.2312566830165L346.4640703513709,-272.73111910406243zM-346.4641791562956,272.7311187627619L346.07200603196515,272.9215379735659L345.96372030877495,-273.2311185522208z"
     style="fill:none;stroke:rgb(127,127,255);stroke-opacity:1;stroke-width:1;stroke-linecap:undefined;stroke-linejoin:undefined"
     id="path1425" />
  <path
     d="M-3965.345776197809,2.428074006166562e-14L3965.345776197809,2.428074006166562e-14"
     style="fill:none;stroke:rgb(255,255,255);stroke-opacity:1;stroke-width:1;stroke-linecap:round"
     id="path1427" />
  <path
     d="M345.17874349967207,-272.6121685877089L345.5553018679672,273.42127427718657L364.1685562369896,-287.5686196799336zM-364.16875994660796,287.56878239704287L-345.1785199832959,272.6119945512257L-345.555321674725,-273.4212629578125z"
     style="fill:rgb(0,128,0);fill-opacity:1"
     id="path1429" />
  <path
     d="M-386.22490524083634,-272.4123020571578L385.3201961127804,-272.1280432797339L406.4046995662681,-287.0622562920438zM-385.3167554566284,272.13266676459466L-406.4081401384754,287.05745423525L386.2249051568916,272.41248062909096z"
     style="fill:rgb(0,0,255);fill-opacity:1"
     id="path1431" />
  <path
     d="M-364.15231075739047,-287.5688905112601L-363.7757579228165,287.75925018502056L-345.16250908751533,-272.61189775638235z"
     style="fill:rgb(0,128,0);fill-opacity:1"
     id="path1433" />
  <path
     d="M-406.4999049919546,286.7687612663057L406.41150062142736,287.0435238782143L385.3133949922607,272.12829259006406z"
     style="fill:rgb(0,0,255);fill-opacity:1"
     id="path1435" />
  <path
     d="M345.1622814972173,272.6117190773239L364.1525214008257,287.5690572747965L363.7757748696793,-287.7592382694983z"
     style="fill:rgb(0,128,0);fill-opacity:1"
     id="path1437" />
  <path
     d="M-406.40822554082035,-287.04838377844413L-385.3166698809867,-272.1235960074528L406.4999048000736,-286.76859794868693z"
     style="fill:rgb(0,0,255);fill-opacity:1"
     id="path1439" />
  <path
     d="M363.25951797718693,-287.2595297491285L363.72325562173944,287.7581972983734L406.03626282495276,-287.2581815397008zM363.2228239453895,287.2581657206733L406.00043637516427,287.2595138004427L405.53625859638873,-287.7581655306599zM-406.0000004697536,-287.2595297491285L-405.5362628252011,287.7581972983734L-363.2232556219878,-287.2581815397008zM-406.03669450155104,287.2581657206733L-363.2590820717763,287.2595138004427L-363.7232598505518,-287.7581655306599z"
     style="fill:rgb(0,128,0);fill-opacity:1"
     id="path1441" />
  <path
     d="M-405.99999035292035,-329.0002924874697L-405.9993136176474,-286.2335109769332L406.49931353235553,-328.52571536195614zM-406.4993144409249,-286.73352678834385L406.00597939786496,-286.2595538156684L405.9933254812721,-329.0259557292834zM-405.99999035292035,286.2592258990819L-405.9993136176474,329.02600740961844L406.49931353235553,286.7338030245955zM-406.4993144409249,328.5259915982078L406.00597939786496,328.9999645708832L405.9933254812721,286.23356265726824z"
     style="fill:rgb(0,0,255);fill-opacity:1"
     id="path1443" />
  <path
     d="M-7930.691552395618,9.712296024666247e-14L7930.691552395618,9.712296024666247e-14M405.4999795719181,328.5000054542583L405.4999795719181,-328.5000054542583M-405.4999795719181,-328.5000054542583L-405.4999795719181,328.5000054542583M0,3.3543636554668496e-29L0,3.3543636054829347e-29M-405.4999795719181,3.3543636054829347e-29L405.4999795719181,3.3543636054829347e-29M0,328.5000054542583L0,-328.5000054542583"
     style="fill:none;stroke:rgb(255,255,255);stroke-opacity:1;stroke-width:1;stroke-linecap:round"
     id="path1445" />
</svg>
